<svg xmlns="http://www.w3.org/2000/svg" viewBox="0 0 240 140" role="img" aria-label="Un pupitre d'orateur avec un micro.">
  <g fill="none" stroke="#0c434e" stroke-width="2.5" stroke-linecap="round" stroke-linejoin="round">
    <!-- le plateau incliné et ses notes -->
    <path d="M84 64 C 104 59 136 59 156 64 C 154 67 151 70 149 73 C 131 70 110 70 92 73 C 89 70 86 67 84 64 Z"/>
    <path d="M101 63 C 109 61 121 61 129 62"/>
    <!-- le corps du pupitre -->
    <path d="M93 73 C 92 88 92 103 93 118 C 111 120 130 120 148 118 C 149 103 149 88 148 73"/>
    <!-- le pied -->
    <path d="M106 119 L 106 127"/>
    <path d="M135 119 L 135 127"/>
    <path d="M97 128 C 111 130 130 130 144 128"/>
    <!-- le col du micro -->
    <path d="M146 63 C 157 55 160 44 152 35"/>
  </g>
  <!-- la capsule du micro, seul accent terracotta -->
  <path d="M146 29 C 142 34 145 40 152 39 C 158 38 159 31 155 27 C 152 25 148 26 146 29 Z" fill="#c36648"/>
  <!-- les ondes de la voix -->
  <g fill="none" stroke="#0c434e" stroke-width="2.5" stroke-linecap="round" stroke-dasharray="1 7">
    <path d="M136 22 C 132 17 132 11 136 6"/>
    <path d="M127 26 C 121 19 121 10 126 3"/>
  </g>
</svg>
