<svg xmlns="http://www.w3.org/2000/svg" viewBox="0 0 40 40">
  <defs>
    <linearGradient id="bg" x1="0.5" y1="0" x2="0.5" y2="1">
      <stop offset="0%" stop-color="#9b8ee8"/>
      <stop offset="100%" stop-color="#5a4ec9"/>
    </linearGradient>
  </defs>

  <!-- Fond cercle -->
  <circle cx="20" cy="20" r="20" fill="url(#bg)"/>

  <!-- Lettre M blanche -->
  <path d="M 8,23 L 8,9 L 20,17 L 32,9 L 32,23 L 29.5,23 L 29.5,13.5 L 20,20.5 L 10.5,13.5 L 10.5,23 Z" fill="white"/>

  <!-- Tige gauche -->
  <path d="M 20,33.5 Q 13,30.5 9.5,23" stroke="#f4a362" stroke-width="0.9" fill="none" stroke-linecap="round"/>
  <!-- Tige droite -->
  <path d="M 20,33.5 Q 27,30.5 30.5,23" stroke="#f4a362" stroke-width="0.9" fill="none" stroke-linecap="round"/>
  <!-- Noeud central -->
  <circle cx="20" cy="33.5" r="1.3" fill="#f4a362"/>

  <!-- Feuilles gauche -->
  <ellipse cx="0" cy="0" rx="2.8" ry="1.25" fill="#f4a362" transform="translate(18.5,32) rotate(-25)"/>
  <ellipse cx="0" cy="0" rx="2.8" ry="1.25" fill="#f4a362" transform="translate(15.5,30.5) rotate(-42)"/>
  <ellipse cx="0" cy="0" rx="2.8" ry="1.25" fill="#f4a362" transform="translate(13,28.5) rotate(-57)"/>
  <ellipse cx="0" cy="0" rx="2.8" ry="1.25" fill="#f4a362" transform="translate(11,26) rotate(-70)"/>
  <ellipse cx="0" cy="0" rx="2.8" ry="1.25" fill="#f4a362" transform="translate(9.5,23.5) rotate(-82)"/>

  <!-- Feuilles droite -->
  <ellipse cx="0" cy="0" rx="2.8" ry="1.25" fill="#f4a362" transform="translate(21.5,32) rotate(25)"/>
  <ellipse cx="0" cy="0" rx="2.8" ry="1.25" fill="#f4a362" transform="translate(24.5,30.5) rotate(42)"/>
  <ellipse cx="0" cy="0" rx="2.8" ry="1.25" fill="#f4a362" transform="translate(27,28.5) rotate(57)"/>
  <ellipse cx="0" cy="0" rx="2.8" ry="1.25" fill="#f4a362" transform="translate(29,26) rotate(70)"/>
  <ellipse cx="0" cy="0" rx="2.8" ry="1.25" fill="#f4a362" transform="translate(30.5,23.5) rotate(82)"/>
</svg>
