<svg xmlns="http://www.w3.org/2000/svg" viewBox="0 0 32 32">
  <rect width="32" height="32" rx="7" fill="#fbf9f4"/>
  <g transform="translate(3.4,9) scale(0.0763,0.382)"><path d="M8 10 C 110 5 210 16 314 8 C 319 16 317 26 306 28 C 200 35 90 26 10 30 C 1 26 1 14 8 10 Z" fill="#c36648" opacity="0.3"/></g>
  <path transform="matrix(0.02130,0,0,-0.02130,7.4304,22.0000)" d="M28.38079833984375 0V21.66357421875L103.39007568359375 31.66357421875H125.88543701171875L203.4344482421875 21.66357421875V0ZM28.38079833984375 635.5933837890625V657.2569580078125H132.13311767578125V620.7615966796875H129.54901123046875ZM98.513916015625 0V637.345703125H129.05364990234375V345.841064453125V0ZM320.196044921875 0 124.63775634765625 570.9834594726562H111.30133056640625V657.2569580078125H244.52117919921875L409.79669189453125 167.5377197265625H396.87615966796875L399.46026611328125 175.2900390625L563.4437255859375 657.2569580078125H582.1516723632812V597.8059692382812H574.7357788085938L571.02783203125 586.5582885742188L374.7615966796875 0ZM499.523193359375 0V21.66357421875L601.186767578125 36.495361328125H672.2476806640625L776.2476806640625 21.66357421875V0ZM561.3198852539062 0Q563.3198852539062 39.29205322265625 564.6738586425781 92.0841064453125Q566.02783203125 144.87615966796875 566.52783203125 201.81423950195312Q567.02783203125 258.7523193359375 567.02783203125 310.33642578125V657.2569580078125H711.4066162109375Q709.4066162109375 617.9649047851562 708.4066162109375 566.5268249511719Q707.4066162109375 515.0887451171875 707.0526428222656 460.004638671875Q706.6986694335938 404.9205322265625 706.6986694335938 353.62847900390625V310.33642578125Q706.6986694335938 258.7523193359375 707.0526428222656 201.81423950195312Q707.4066162109375 144.87615966796875 708.4066162109375 92.0841064453125Q709.4066162109375 39.29205322265625 711.4066162109375 0ZM601.186767578125 620.7615966796875V657.2569580078125H776.2476806640625V635.5933837890625L672.2476806640625 620.7615966796875Z" fill="#0c434e"/>
</svg>
